<?xml version="1.0" encoding="utf-8"?>
<!-- Generator: Adobe Illustrator 23.0.1, SVG Export Plug-In . SVG Version: 6.00 Build 0)  -->
<svg version="1.1" id="Layer_1" xmlns="http://www.w3.org/2000/svg" xmlns:xlink="http://www.w3.org/1999/xlink" x="0px" y="0px"
	 viewBox="0 0 698 504" style="enable-background:new 0 0 698 504;" xml:space="preserve">
<style type="text/css">
	.st0{fill:#0095de;}
</style>
<path class="st0" d="M619.05,369.55c9.04,4.1,18.95,9.23,18.95,20.14c0,13.74-10.07,12.02-22.87,10.97
	c-12.33-1.01-24.71-4.78-36.66-7.86c-3.02-0.76-24.21-10.7-15.42-15.04c-4.15,0.22-16.55,2.03-19.78-1.23
	c3.68,8.81,7.71,15.07,5.36,24.71c-3.07,10.62-13.16,8.23-21.88,8.23c-20.31,0-40.59,0-60.89,0c-37.25,0-74.49,0-111.75,0
	c-43.81,0-87.61,0-131.43,0c-19.66,0-33-3.86-22.81-27.82c7.06-16.58,9.33-21.99,26.95-21.99c10.79,0,21.57,0,32.34,0
	c-21.21-7.12-45.69-14.82-68.35-14.82c2.19,22.36-20.88,16.48-36.64,16.48c-17.23,0-34.38,0.31-51.59,0.09
	c-13.57-0.15-27.1-0.34-40.66-0.52c-11.58-0.16-8.62-25.39-8.62-34.1c0-49.43-0.62-98.87-0.83-148.27
	c-0.06-22.33,0.15-44.66-0.06-66.99c-0.11-10.45-3.21-25.6,0.06-35.54c4.59-13.8,25.78-8.67,37.78-8.67
	c22.78,0,45.52-0.03,68.28-0.21c6.96-0.07,30.32-4.56,31.47,6.8c0,9.96,1.24,20.55,1.24,30.72c0,60.07,0.82,120.16,0.82,180.21
	c0,15.4,0.93,31.05,0,46.43c0,6.62-5.76,11.54,4.12,13.18c12.49,2.42,25.3,4.09,37.88,6.15c8.07,1.36,16.93,3.57,24.29,7.21
	c11.92,6.01,33.87,2.28,47.43,2.28c15.21,0,30.42,0,45.62,0l-0.4-2.9c44.52,0,87.33,1.23,127.21,1.23v1.66h7.43v-1.66
	c5.72,0,12.27-1.07,16.48,1.66v-1.66c15.65,0,34.5-1.23,40.34,16.48C569.53,380.24,590.95,357.94,619.05,369.55 M214.32,290.92
	c-3.97,0-1.91-129.34-1.85-145.14c0.08-24.58,0.21-49.12,0.21-73.67c0-14.23,7.62-18.86,21.83-18.73
	c21.77,0.17,43.57,0.79,65.38,0.79c58.78,0,117.59,0,176.39,0c17.11,0,34.22-0.06,51.31-0.18c13.07-0.06,26.14-0.16,39.22-0.25
	c14.45-0.09,11.48,22.58,11.48,31.54c0,63.08,0.26,126.14,0.03,189.22c0,5.85,0.84,17.21-4.75,20.95
	c-10.28,6.82-31.91,2.4-44.12,2.46c-27.36,0.12-54.73,0.28-82.11,0.4c-11.25,0.03-8.78,23.6-5.32,32.13
	c7.78,7.8,43.58-7.12,48.18,4.13c4.15,16.97-4.56,16.45-20.09,16.45c-15.98,0-31.97-0.47-47.96-0.37c-25.01,0.17-50,0.42-75,0.24
	c-13.14-0.09-26.26-0.18-39.37-0.28c-15.68-0.09-12.42-18.93,1.25-18.93c7.52,0,30.71,3.41,37.47-0.4c6.97,0,4.12-27.64,4.12-32.53
	c-25.71,0.21-51.43,0.46-77.12,0.68C260.8,299.54,214.32,306.5,214.32,290.92 M232.82,279.8h325.71V75.57
	c-98.39,0-196.78,0-295.14,0c-1.74,0-30.57-0.15-30.57,0.13c0,18.48,0,36.95,0,55.44C232.82,180.67,232.82,230.24,232.82,279.8
	 M402.06,283.48h-13.15v7.04C395.64,290.52,405,293.51,402.06,283.48"/>
</svg>
